<svg width="116" height="65" viewBox="0 0 116 65" fill="none" xmlns="http://www.w3.org/2000/svg">
<path id="Vector" d="M107.775 45.4529H93.3243L86.0991 32.9385L93.3243 20.424H107.775L115 32.9385L107.775 45.4529ZM22.6763 45.4529H8.22523L1 32.9385L8.22523 20.424H22.6757L29.9009 32.9385L22.6763 45.4529ZM97.1375 64.5851H82.6857L75.4605 52.0706L82.6857 39.5561H97.1362L104.361 52.0706L97.1375 64.5851ZM75.8629 64.5851H61.4111L54.1859 52.0706L61.4111 39.5561H75.8616L83.0868 52.0706L75.8629 64.5851ZM54.5882 64.5851H40.1365L32.9113 52.0706L40.1365 39.5561H54.587L61.8122 52.0706L54.5882 64.5851ZM33.313 64.5851H18.8625L11.6373 52.0706L18.8625 39.5561H33.313L40.5382 52.0706L33.313 64.5851ZM72.0491 45.4529H86.4995L93.7248 32.9385L86.4995 20.424H72.0491L64.8238 32.9385L72.0491 45.4529ZM65.2249 45.4529H50.7745L43.5492 32.9385L50.7745 20.424H65.2249L72.4502 32.9385L65.2249 45.4529ZM43.9503 45.4529H29.4998L22.2746 32.9385L29.4998 20.424H43.9503L51.1755 32.9385L43.9503 45.4529ZM97.1368 26.3214H82.6864L75.4611 13.807L82.6864 1.29248H97.1368L104.362 13.807L97.1368 26.3214ZM75.8622 26.3214H61.4118L54.1865 13.807L61.4118 1.29248H75.8622L83.0875 13.807L75.8622 26.3214ZM54.5876 26.3214H40.1371L32.9119 13.807L40.1371 1.29248H54.5876L61.8129 13.807L54.5876 26.3214ZM33.313 26.3214H18.8625L11.6373 13.807L18.8625 1.29248H33.313L40.5382 13.807L33.313 26.3214Z" stroke="#EEE5DC" stroke-width="0.625724"/>
</svg>
